<svg width="800" height="800" viewBox="0 0 800 800" fill="none" xmlns="http://www.w3.org/2000/svg">
<path d="M399.812 478.641C488.459 478.641 560.578 406.522 560.578 317.875C560.578 229.234 488.459 157.125 399.812 157.125C311.177 157.125 239.062 229.238 239.062 317.875C239.062 406.516 311.181 478.641 399.812 478.641ZM363.234 378.555H436.403C426.351 418.117 408.87 445.455 399.819 457.711C390.773 445.455 373.287 418.117 363.234 378.555ZM359.829 362.808C357.277 349.008 355.672 334.036 355.672 317.88C355.672 300.894 357.393 285.164 360.183 270.791H439.473C442.25 285.152 443.959 300.875 443.959 317.88C443.959 334.042 442.354 349.008 439.803 362.808H359.829ZM416.293 461.886C427.114 446.31 443.405 417.905 452.657 378.555H531.349C510.53 423.502 467.469 456.069 416.291 461.886H416.293ZM544.833 317.88C544.833 333.566 542.252 348.647 537.625 362.808H455.831C458.199 348.928 459.713 334.005 459.713 317.88C459.713 300.919 458.077 285.256 455.483 270.791H536.83C541.927 285.579 544.833 301.381 544.833 317.88ZM530.313 255.044H452.175C442.831 216.769 426.882 189.137 416.257 173.867C466.622 179.586 509.116 211.214 530.313 255.044ZM399.838 178.078C408.725 190.059 425.747 216.567 435.872 255.05L363.808 255.044C373.952 216.647 390.963 190.084 399.838 178.078ZM383.39 173.867C372.763 189.138 356.815 216.768 347.465 255.043H269.327C290.53 211.207 333.024 179.579 383.39 173.867ZM254.807 317.879C254.807 301.381 257.712 285.579 262.808 270.79H344.155C341.561 285.255 339.926 300.923 339.926 317.879C339.926 334.004 341.433 348.928 343.807 362.807H262.014C257.387 348.647 254.807 333.565 254.807 317.879ZM346.982 378.554C356.235 417.904 372.532 446.315 383.352 461.892C332.174 456.075 289.108 423.507 268.282 378.554H346.982Z" fill="white"/>
<path d="M626.688 512.297H656.625C660.977 512.297 664.499 508.775 664.499 504.423C664.499 500.078 660.977 496.55 656.625 496.55L626.688 496.556C622.336 496.556 618.814 500.077 618.814 504.429C618.82 508.775 622.342 512.297 626.688 512.297Z" fill="white"/>
<path d="M548.203 504.422C548.203 508.768 551.725 512.296 556.077 512.296H586.014C590.366 512.296 593.888 508.774 593.888 504.422C593.888 500.076 590.366 496.548 586.014 496.548H556.077C551.725 496.554 548.203 500.076 548.203 504.422Z" fill="white"/>
<path d="M707 85.125H92.9844C88.6325 85.125 85.1108 88.6468 85.1108 92.9986V542.78C85.1108 547.125 88.6325 550.653 92.9844 550.653H298.703L285.099 629.188H246.769C242.417 629.188 238.895 632.71 238.895 637.061V707.008C238.895 711.354 242.417 714.882 246.769 714.882H553.222C557.574 714.882 561.096 711.36 561.096 707.008V637.055C561.096 632.71 557.574 629.182 553.222 629.182H514.892L501.288 550.647L707.006 550.653C711.358 550.653 714.88 547.132 714.88 542.78V92.9829C714.88 88.6372 711.358 85.1154 707.006 85.1154L707 85.125ZM545.344 644.938V699.142H254.641V644.931L545.344 644.938ZM301.063 629.191L314.667 550.656H485.292L498.897 629.191H301.063ZM699.109 534.916H100.844V100.869H699.109V534.916Z" fill="white"/>
</svg>
