<svg width="800" height="800" viewBox="0 0 800 800" fill="none" xmlns="http://www.w3.org/2000/svg">
<path d="M95.344 98.5C77.7408 98.9639 64.1299 112.8 63.9049 130.323C63.8255 132.704 63.9049 135.09 63.9049 137.397V174.757V235.335V309.749V389.235V463.649V524.227V561.586C63.9049 563.967 63.8255 566.353 63.9049 568.66C64.2101 586.19 77.7416 600.179 95.344 600.484C99.7263 600.563 104.029 600.484 108.412 600.484H144.313H198.28H265.468H341.499H420.76H498.715H570.596H631.559H676.84H701.516C703.286 600.484 705.05 600.563 706.741 600.404C723.502 598.866 735.952 585.414 736.105 568.581C736.184 560.97 736.105 553.285 736.105 545.675V495.168V425.906V347.878V270.003V201.583V151.845C736.105 144.618 736.258 137.319 736.105 130.012C735.8 112.483 722.189 98.6466 704.666 98.2622H701.053H675.607H629.715H568.29H495.72H417.614H338.432H263.017H196.134H142.704H107.493C103.496 98.5002 99.4183 98.5002 95.3474 98.5002C89.3538 98.5002 83.5066 103.804 83.8179 110.03C84.123 116.255 88.8899 121.559 95.3474 121.559H108.183H143.467H196.281H262.467H337.113H415.525H492.631H564.513H626.164H672.905H699.889H704.656H705.889C707.964 121.639 705.041 121.022 706.89 121.791C707.506 122.023 708.196 122.176 708.813 122.408C708.581 122.328 707.275 121.639 708.349 122.255C708.733 122.487 710.961 123.946 710.119 123.256C709.118 122.487 710.351 123.488 710.424 123.641C710.888 124.104 711.346 124.562 711.809 125.099C710.503 123.641 711.809 125.331 712.273 126.021C713.348 127.559 712.273 125.099 712.737 126.943C712.969 127.712 713.427 129.866 713.201 127.864C713.28 128.554 713.28 129.25 713.28 129.939V130.324C713.36 137.63 713.28 144.93 713.28 152.235V201.514V268.782V345.735V423.146V492.024V543.147V568.129V570.204C713.28 571.052 712.664 571.974 713.28 570.204C713.128 570.668 713.048 571.205 712.896 571.662C712.743 572.126 712.591 572.663 712.432 573.121C712.511 572.889 713.201 571.583 712.585 572.657C712.353 573.042 710.894 575.27 711.584 574.427C712.353 573.426 711.352 574.659 711.199 574.732C710.735 575.196 710.277 575.654 709.74 576.118C711.199 574.812 709.508 576.118 708.819 576.582C707.281 577.656 709.74 576.582 707.897 577.046C707.128 577.278 704.9 577.735 706.975 577.51C706.286 577.589 705.59 577.589 704.9 577.589H701.366H676.385H631.335H571.221H500.109H422.924H344.434H269.635H202.448H147.943H110.815C105.816 577.589 100.744 577.668 95.7454 577.589C94.6711 577.589 92.7485 576.972 94.5125 577.589C93.5908 577.284 92.5167 577.125 91.5889 576.741C93.4321 577.43 91.4363 576.509 90.7405 576.124C89.0498 575.276 91.2043 576.893 89.9714 575.508C89.6662 575.123 89.2817 574.818 88.9705 574.433C88.1221 573.585 89.6602 575.819 88.6653 574.049C88.2808 573.359 87.3591 571.437 88.0488 573.201C87.6643 572.279 87.5117 571.278 87.2004 570.277C87.8169 572.047 87.2004 570.198 87.2004 569.203V568.739V561.512V524.384V464.497V391.309V312.97V238.861V177.898V139.306V131.158V130.084C87.2004 129.009 87.8169 127.239 87.2004 129.009C87.5056 128.088 87.6643 127.014 88.0488 126.086C87.3591 127.929 88.2808 125.933 88.6653 125.237C89.5137 123.547 87.8962 125.701 89.2817 124.468C89.7456 124.005 90.2033 123.547 90.7405 123.083C90.5879 123.235 89.2817 124.084 90.356 123.388C90.7405 123.156 93.0477 121.85 92.0466 122.314C90.9724 122.778 93.6578 121.929 94.0424 121.777C94.964 121.24 93.963 121.697 93.5053 121.777C94.195 121.697 94.8907 121.697 95.5804 121.697C101.574 121.545 107.421 116.473 107.11 110.168C106.573 103.954 101.806 98.3454 95.3485 98.4979L95.344 98.5Z" fill="white"/>
<path d="M459.969 679.969H355.038H340.048C343.893 683.814 347.738 687.659 351.577 691.498V601.862V589.179L340.048 600.709H444.979H459.969C456.124 596.864 452.279 593.018 448.44 589.179V678.815V691.498C448.44 697.492 453.744 703.339 459.969 703.028C466.195 702.723 471.499 697.956 471.499 691.498V601.862V589.179C471.499 582.954 466.195 577.65 459.969 577.65H355.038H340.048C333.822 577.65 328.518 582.954 328.518 589.179V678.815V691.498C328.518 697.724 333.822 703.028 340.048 703.028H444.979H459.969C465.963 703.028 471.81 697.724 471.499 691.498C471.194 685.199 466.427 679.969 459.969 679.969Z" fill="white"/>
<path d="M272.079 703.047H358.486H496.249H527.921C533.914 703.047 539.762 697.743 539.45 691.517C539.145 685.292 534.378 679.988 527.921 679.988H441.513H303.75H272.079C266.085 679.988 260.238 685.292 260.549 691.517C260.854 697.743 265.621 703.047 272.079 703.047Z" fill="white"/>
<path d="M253.547 267.547V369.256V379.791V382.635C253.547 384.558 252.858 383.325 253.7 381.329C256.392 378.637 259.083 375.946 261.769 373.26C261.921 373.181 265.303 373.26 263.691 373.108H262.233H256.776H239.015H199.196H192.434H190.511C188.9 373.187 190.359 372.491 192.202 373.26C194.894 375.952 197.585 378.643 200.271 381.329C201.119 383.252 200.35 384.637 200.423 382.94V380.56V372.106V344.202V282.006V271.472V268.628C200.423 266.705 201.113 267.938 200.271 269.934C197.579 272.625 194.887 275.317 192.202 278.003C192.049 278.082 188.668 278.003 190.279 278.155H191.738H197.194H214.955H254.774H261.537H263.459C265.071 278.076 263.612 278.772 261.769 278.003C259.077 275.311 256.385 272.619 253.7 269.934C253.779 270.166 253.852 270.318 253.932 270.55C256.312 276.318 261.543 280.389 268.153 278.619C273.61 277.16 278.608 270.239 276.222 264.398C273.683 258.245 269.301 255.175 262.77 255.017H255.543H230.018H202.882C198.579 255.017 194.118 254.712 189.815 255.017C182.509 255.481 177.589 260.858 177.363 268.084C177.284 269.623 177.363 271.081 177.363 272.619V291.84V347.344C177.363 359.258 176.9 371.252 177.363 383.093C177.669 390.167 182.515 395.703 189.815 396.008C191.2 396.087 192.579 396.008 193.965 396.008H216.413C231.941 396.008 247.468 396.24 262.923 396.008C270.149 395.855 276.143 391.161 276.527 383.556V381.249V365.259V269.702V267.395C276.527 261.402 271.224 255.554 264.998 255.866C258.852 256.25 253.547 261.089 253.547 267.547Z" fill="white"/>
<path d="M238.563 462.953V394.3V384.534C238.563 378.541 233.259 372.694 227.033 373.005C220.808 373.31 215.504 378.077 215.504 384.534V453.188V462.953C215.504 468.947 220.808 474.794 227.033 474.483C233.259 474.257 238.563 469.411 238.563 462.953Z" fill="white"/>
<path d="M238.563 266.625V220.573C238.563 214.58 233.259 208.733 227.033 209.044C220.808 209.349 215.504 214.116 215.504 220.573V266.625C215.504 272.619 220.808 278.466 227.033 278.155C233.259 277.923 238.563 273.083 238.563 266.625Z" fill="white"/>
<path d="M426.141 314.813V416.522V427.057V429.901C426.141 431.823 425.451 430.591 426.293 428.595C428.985 425.903 431.676 423.211 434.362 420.526C434.515 420.446 437.896 420.526 436.285 420.373H434.826H429.369H411.609H371.79H365.027H363.104C361.493 420.453 362.952 419.757 364.795 420.526C367.487 423.218 370.178 425.909 372.864 428.595C373.712 430.517 372.943 431.903 373.017 430.206V427.826V419.372V391.467V329.272V318.737V315.893C373.017 313.971 373.706 315.204 372.864 317.199L364.795 325.268C364.642 325.348 361.261 325.268 362.872 325.421H364.331H369.788H387.549H427.367H434.13H436.053C437.664 325.342 436.205 326.037 434.362 325.268L426.293 317.199C426.373 317.431 426.446 317.584 426.525 317.816C428.905 323.584 434.136 327.655 440.746 325.885C446.203 324.426 451.202 317.505 448.815 311.664C446.276 305.511 441.894 302.441 435.363 302.282H428.136H402.611H375.476C371.173 302.282 366.711 301.977 362.408 302.282C355.102 302.746 350.183 308.124 349.957 315.35C349.877 316.888 349.957 318.347 349.957 319.885V339.105V394.61C349.957 406.524 349.493 418.518 349.957 430.358C350.262 437.432 355.108 442.968 362.408 443.273C363.793 443.353 365.173 443.273 366.558 443.273H389.007C404.534 443.273 420.061 443.505 435.516 443.273C442.743 443.121 448.736 438.427 449.121 430.822V428.515V412.524V316.968V314.661C449.121 308.667 443.817 302.82 437.591 303.131C431.445 303.589 426.141 308.355 426.141 314.813Z" fill="white"/>
<path d="M411.141 515.625V442.213V431.91C411.141 425.916 405.837 420.069 399.611 420.38C393.385 420.685 388.082 425.452 388.082 431.91V505.322V515.625C388.082 521.619 393.385 527.466 399.611 527.155C405.837 526.923 411.141 522.083 411.141 515.625Z" fill="white"/>
<path d="M411.141 313.891V267.839C411.141 261.845 405.837 255.998 399.611 256.31C393.385 256.615 388.082 261.382 388.082 267.839V313.891C388.082 319.884 393.385 325.731 399.611 325.42C405.837 325.188 411.141 320.428 411.141 313.891Z" fill="white"/>
<path d="M598.719 221.656V280.158V373.255V388.55V392.853C598.719 395.16 597.95 394.159 598.871 392.005L606.94 383.936C607.093 383.856 610.474 383.936 608.863 383.783H607.404H601.948H584.187H544.368H537.605H535.683C534.071 383.863 535.53 383.167 537.373 383.936L545.442 392.005C546.291 394.001 545.595 395.313 545.595 393.238V389.777V377.167V335.883V242.786V227.49V223.187C545.595 220.88 546.364 221.881 545.442 224.036C542.751 226.728 540.059 229.419 537.373 232.105C537.221 232.184 533.839 232.105 535.451 232.257H536.909H542.366H560.127H599.946H606.708H608.631C610.242 232.178 608.784 232.874 606.94 232.105C604.249 229.413 601.557 226.722 598.871 224.036C598.951 224.268 599.024 224.42 599.103 224.652C601.484 230.42 606.714 234.491 613.325 232.721C618.781 231.263 623.78 224.341 621.394 218.5C619.086 212.891 615.4 209.43 609.168 209.119C608.247 209.04 607.246 209.119 606.324 209.119H594.483H558.735C550.971 209.119 543.128 208.734 535.364 209.119C528.059 209.503 522.834 214.655 522.602 221.955C522.523 223.413 522.602 224.951 522.602 226.416V351.954C522.602 365.87 522.065 379.858 522.602 393.696C522.907 400.922 527.906 406.379 535.285 406.69C537.897 406.77 540.51 406.69 543.128 406.69H576.033H605.941C611.397 406.69 616.78 406.153 620.009 400.697C621.62 397.932 621.852 395.161 621.852 392.164V345.119V224.038V221.578C621.852 215.584 616.548 209.737 610.323 210.048C604.024 210.353 598.72 215.2 598.72 221.657L598.719 221.656Z" fill="white"/>
<path d="M583.735 464.422V404.077V395.391C583.735 389.398 578.431 383.551 572.205 383.862C565.98 384.167 560.676 388.934 560.676 395.391V455.737V464.422C560.676 470.416 565.98 476.263 572.205 475.951C578.431 475.646 583.735 470.879 583.735 464.422Z" fill="white"/>
<path d="M583.735 220.734V183.528C583.735 177.535 578.431 171.687 572.205 171.999C565.98 172.304 560.676 177.071 560.676 183.528V220.734C560.676 226.728 565.98 232.575 572.205 232.264C578.431 232.032 583.735 227.192 583.735 220.734Z" fill="white"/>
</svg>
