<svg width="800" height="800" viewBox="0 0 800 800" fill="none" xmlns="http://www.w3.org/2000/svg">
<mask id="mask0_6_105" style="mask-type:luminance" maskUnits="userSpaceOnUse" x="6" y="118" width="788" height="564">
<path d="M6.39062 118.75H793.594V681.25H6.39062V118.75Z" fill="white"/>
</mask>
<g mask="url(#mask0_6_105)">
<path d="M782.063 580.656H749.775V269.313C749.757 258.1 745.301 247.358 737.373 239.43C729.444 231.507 718.702 227.046 707.496 227.027H672.901V146.309C672.889 139.18 670.057 132.338 665.009 127.296C659.967 122.249 653.125 119.41 645.99 119.404H153.99C146.855 119.41 140.019 122.249 134.971 127.296C129.93 132.338 127.092 139.18 127.086 146.309V227.027H92.4904C81.2782 227.046 70.5357 231.507 62.6076 239.43C54.6852 247.358 50.2235 258.1 50.2052 269.313V580.656H17.9177C11.5518 580.656 6.38818 585.82 6.38818 592.192V638.317C6.40649 649.523 10.8621 660.272 18.7905 668.193C26.7129 676.122 37.4608 680.584 48.6671 680.596H751.308C762.514 680.584 773.262 676.122 781.184 668.193C789.113 660.271 793.574 649.523 793.587 638.317V592.192C793.587 589.134 792.372 586.198 790.211 584.038C788.051 581.871 785.115 580.656 782.057 580.656L782.063 580.656ZM150.141 203.969H649.828V499.938C649.828 500.957 649.425 501.939 648.705 502.66C647.985 503.38 647.002 503.783 645.983 503.783H153.983C151.859 503.783 150.138 502.062 150.138 499.938L150.141 203.969ZM153.986 142.47L645.986 142.476C647.005 142.476 647.988 142.879 648.708 143.6C649.428 144.32 649.831 145.296 649.831 146.316V180.911H150.144V146.316C150.144 144.198 151.865 142.477 153.989 142.477L153.986 142.47ZM73.2671 269.32C73.2854 258.712 81.8791 250.119 92.4874 250.1H127.083V499.944C127.089 507.079 129.927 513.921 134.969 518.963C140.016 524.01 146.852 526.842 153.987 526.854H645.987C653.122 526.842 659.964 524.01 665.006 518.963C670.054 513.921 672.886 507.079 672.898 499.944V250.1H707.493C718.095 250.118 726.695 258.712 726.707 269.32V580.664H73.2697L73.2671 269.32ZM770.533 638.32C770.514 648.928 761.921 657.522 751.312 657.541H48.6718C38.0638 657.522 29.4702 648.929 29.4577 638.32V603.725H770.536L770.533 638.32Z" fill="white"/>
</g>
<path d="M278.922 465.344C281.98 465.344 284.916 464.129 287.076 461.962C289.237 459.802 290.452 456.866 290.452 453.808V253.933C290.452 247.561 285.294 242.397 278.922 242.397C272.556 242.397 267.393 247.561 267.393 253.933V453.808C267.393 460.18 272.556 465.344 278.922 465.344Z" fill="white"/>
<path d="M190.516 288.531H228.956H228.95C235.322 288.531 240.48 283.368 240.48 276.996C240.48 270.63 235.322 265.466 228.95 265.466H190.509H190.516C184.144 265.466 178.98 270.63 178.98 276.996C178.98 283.368 184.144 288.531 190.516 288.531Z" fill="white"/>
<path d="M190.516 339.781H228.956H228.95C235.322 339.781 240.48 334.618 240.48 328.246C240.48 321.88 235.322 316.716 228.95 316.716H190.509H190.516C184.144 316.716 178.98 321.88 178.98 328.246C178.98 334.618 184.144 339.781 190.516 339.781Z" fill="white"/>
<path d="M190.516 391.031H228.956H228.95C235.322 391.031 240.48 385.868 240.48 379.502C240.48 373.13 235.322 367.966 228.95 367.966H190.509H190.516C184.144 367.966 178.98 373.13 178.98 379.502C178.98 385.868 184.144 391.031 190.516 391.031Z" fill="white"/>
<path d="M190.516 442.281H228.956H228.95C235.322 442.281 240.48 437.118 240.48 430.752C240.48 424.38 235.322 419.216 228.95 419.216H190.509H190.516C184.144 419.216 178.98 424.38 178.98 430.752C178.98 437.118 184.144 442.281 190.516 442.281Z" fill="white"/>
<path d="M332.734 442.281H609.484C615.85 442.281 621.014 437.118 621.014 430.752C621.014 424.38 615.85 419.216 609.484 419.216H597.955L597.949 338.497C597.949 335.44 596.734 332.51 594.573 330.349C592.413 328.182 589.477 326.968 586.419 326.968H540.294C533.928 326.968 528.765 332.131 528.765 338.497V419.216H505.699V276.997C505.699 273.94 504.484 271.01 502.324 268.843C500.157 266.682 497.227 265.468 494.169 265.468H448.044C441.672 265.468 436.509 270.631 436.509 276.997V419.216H413.443L413.449 323.122C413.449 320.064 412.234 317.135 410.068 314.968C407.907 312.807 404.977 311.592 401.913 311.592H355.788C349.422 311.592 344.259 316.756 344.259 323.122V419.216H332.729C326.357 419.216 321.2 424.379 321.2 430.751C321.2 437.117 326.357 442.281 332.729 442.281L332.734 442.281ZM551.828 350.033H574.894V419.222H551.828V350.033ZM459.58 288.534H482.645V419.223H459.58V288.534ZM367.331 334.659H390.397V419.223H367.331V334.659Z" fill="white"/>
</svg>
