<svg width="800" height="800" viewBox="0 0 800 800" fill="none" xmlns="http://www.w3.org/2000/svg">
<path d="M619.362 683.818C619.362 696.806 608.736 707.433 595.748 707.433H204.24C191.252 707.433 180.625 696.806 180.625 683.818V116.166C180.625 103.178 191.252 92.5515 204.24 92.5515H595.74C608.728 92.5515 619.354 103.178 619.354 116.166L619.362 683.818Z" stroke="white" stroke-width="15.7441" stroke-miterlimit="10" stroke-linecap="round" stroke-linejoin="round"/>
<path d="M416.059 659.257C416.059 668.126 408.863 675.322 399.995 675.322C391.12 675.322 383.924 668.126 383.924 659.257C383.924 650.383 391.12 643.187 399.995 643.187C408.863 643.187 416.059 650.383 416.059 659.257Z" stroke="white" stroke-width="15.7441" stroke-miterlimit="10" stroke-linecap="round" stroke-linejoin="round"/>
<path d="M183.976 600.745H616.009" stroke="white" stroke-width="15.7441" stroke-miterlimit="10" stroke-linecap="round" stroke-linejoin="round"/>
<path d="M533.25 273.441L433.503 357.885" stroke="white" stroke-width="15.7441" stroke-miterlimit="10" stroke-linecap="round" stroke-linejoin="round"/>
<path d="M433.504 357.885L400.001 386.473L366.48 357.885" stroke="white" stroke-width="15.7441" stroke-miterlimit="10" stroke-linecap="round" stroke-linejoin="round"/>
<path d="M366.481 357.885L266.734 273.441" stroke="white" stroke-width="15.7441" stroke-miterlimit="10" stroke-linecap="round" stroke-linejoin="round"/>
<path d="M266.734 442.32L366.481 357.885" stroke="white" stroke-width="15.7441" stroke-miterlimit="10" stroke-linecap="round" stroke-linejoin="round"/>
<path d="M433.503 357.885L533.25 442.32" stroke="white" stroke-width="15.7441" stroke-miterlimit="10" stroke-linecap="round" stroke-linejoin="round"/>
<path d="M266.734 273.441H533.242V442.32H266.734V273.441Z" stroke="white" stroke-width="15.7441" stroke-miterlimit="10" stroke-linecap="round" stroke-linejoin="round"/>
</svg>
